HIERARCHY
ROOT Hips
{
	OFFSET 0.000000 0.000000 0.000000
	CHANNELS 6 Xposition Yposition Zposition Zrotation Yrotation Xrotation 
	JOINT LHipJoint
	{
		OFFSET 0.000000 0.000000 0.000000
		CHANNELS 3 Zrotation Yrotation Xrotation
		JOINT LeftUpLeg
		{
			OFFSET 1.363060 -1.794630 0.839290
			CHANNELS 3 Zrotation Yrotation Xrotation
			JOINT LeftLeg
			{
				OFFSET 2.448110 -6.726130 0.000000
				CHANNELS 3 Zrotation Yrotation Xrotation
				JOINT LeftFoot
				{
					OFFSET 2.562200 -7.039590 0.000000
					CHANNELS 3 Zrotation Yrotation Xrotation
					JOINT LeftToeBase
					{
						OFFSET 0.157640 -0.433110 2.322550
						CHANNELS 3 Zrotation Yrotation Xrotation
						End Site
						{
							OFFSET 0.000000 0.000000 0.000000
						}
					}
				}
			}
		}
	}
	JOINT RHipJoint
	{
		OFFSET 0.000000 0.000000 0.000000
		CHANNELS 3 Zrotation Yrotation Xrotation
		JOINT RightUpLeg
		{
			OFFSET -1.305520 -1.794630 0.839290
			CHANNELS 3 Zrotation Yrotation Xrotation
			JOINT RightLeg
			{
				OFFSET -2.542530 -6.985550 0.000000
				CHANNELS 3 Zrotation Yrotation Xrotation
				JOINT RightFoot
				{
					OFFSET -2.568260 -7.056230 0.000000
					CHANNELS 3 Zrotation Yrotation Xrotation
					JOINT RightToeBase
					{
						OFFSET -0.164730 -0.452590 2.363150
						CHANNELS 3 Zrotation Yrotation Xrotation
						End Site
						{
							OFFSET 0.000000 0.000000 0.000000
						}
					}
				}
			}
		}
	}
	JOINT LowerBack
	{
		OFFSET 0.000000 0.000000 0.000000
		CHANNELS 3 Zrotation Yrotation Xrotation
		JOINT Spine
		{
			OFFSET 0.028270 2.035590 -0.193380
			CHANNELS 3 Zrotation Yrotation Xrotation
			JOINT Spine1
			{
				OFFSET 0.056720 2.048850 -0.042750
				CHANNELS 3 Zrotation Yrotation Xrotation
				JOINT Neck
				{
					OFFSET 0.000000 0.000000 0.000000
					CHANNELS 3 Zrotation Yrotation Xrotation
					JOINT Neck1
					{
						OFFSET -0.054170 1.746240 0.172020
						CHANNELS 3 Zrotation Yrotation Xrotation
						JOINT Head
						{
							OFFSET 0.104070 1.761360 -0.123970
							CHANNELS 3 Zrotation Yrotation Xrotation
							End Site
							{
								OFFSET 0.000000 0.000000 0.000000
							}
						}
					}
				}
				JOINT LeftShoulder
				{
					OFFSET 0.000000 0.000000 0.000000
					CHANNELS 3 Zrotation Yrotation Xrotation
					JOINT LeftArm
					{
						OFFSET 3.362410 1.200890 -0.311210
						CHANNELS 3 Zrotation Yrotation Xrotation
						JOINT LeftForeArm
						{
							OFFSET 4.983000 -0.000000 -0.000000
							CHANNELS 3 Zrotation Yrotation Xrotation
							JOINT LeftHand
							{
								OFFSET 3.483560 -0.000000 -0.000000
								CHANNELS 3 Zrotation Yrotation Xrotation
								JOINT LeftFingerBase
								{
									OFFSET 0.000000 0.000000 0.000000
									CHANNELS 3 Zrotation Yrotation Xrotation
									JOINT LeftHandIndex1
									{
										OFFSET 0.715260 -0.000000 -0.000000
										CHANNELS 3 Zrotation Yrotation Xrotation
										End Site
										{
											OFFSET 0.000000 0.000000 0.000000
										}
									}
								}
								JOINT LThumb
								{
									OFFSET 0.000000 0.000000 0.000000
									CHANNELS 3 Zrotation Yrotation Xrotation
									End Site
									{
										OFFSET 0.000000 0.000000 0.000000
									}
								}
							}
						}
					}
				}
				JOINT RightShoulder
				{
					OFFSET 0.000000 0.000000 0.000000
					CHANNELS 3 Zrotation Yrotation Xrotation
					JOINT RightArm
					{
						OFFSET -3.136600 1.374050 -0.404650
						CHANNELS 3 Zrotation Yrotation Xrotation
						JOINT RightForeArm
						{
							OFFSET -5.241900 -0.000000 -0.000000
							CHANNELS 3 Zrotation Yrotation Xrotation
							JOINT RightHand
							{
								OFFSET -3.444170 -0.000000 -0.000000
								CHANNELS 3 Zrotation Yrotation Xrotation
								JOINT RightFingerBase
								{
									OFFSET 0.000000 0.000000 0.000000
									CHANNELS 3 Zrotation Yrotation Xrotation
									JOINT RightHandIndex1
									{
										OFFSET -0.622530 -0.000000 -0.000000
										CHANNELS 3 Zrotation Yrotation Xrotation
										End Site
										{
											OFFSET 0.000000 0.000000 0.000000
										}
									}
								}
								JOINT RThumb
								{
									OFFSET 0.000000 0.000000 0.000000
									CHANNELS 3 Zrotation Yrotation Xrotation
									End Site
									{
										OFFSET 0.000000 0.000000 0.000000
									}
								}
							}
						}
					}
				}
			}
		}
	}
}
MOTION
Frames: 6
Frame Time: 0.008333
-0.387262 18.376411 8.579357 -8.472753 -0.399866 14.234511 6.410886 4.337864 -2.568280 -22.330785 -43.861680 20.773695 -3.798355 -2.351533 -3.253562 -14.215058 45.061152 -31.711146 0.538400 4.701500 13.059000 -1.089763 -4.304870 -1.014522 22.826039 25.847602 0.584794 3.541171 -0.878110 3.175142 7.591746 -24.524425 -2.962970 -0.005100 0.461000 -1.266700 -0.874163 1.620959 9.994681 14.741595 6.319261 -33.575192 -9.421557 -0.935277 -8.585670 -16.429499 -9.289418 -4.654956 19.400587 -16.018911 23.909617 3.613100 -6.261200 7.047500 -8.803875 -6.144982 2.528046 -84.921614 14.710766 15.750715 12.837692 -14.783417 -2.454079 0.817149 1.003143 32.955372 9.588281 -10.786362 -1.997900 -7.125000 0.000000 0.000000 -12.338100 17.887400 8.143600 11.949621 7.081879 2.349455 81.366895 -19.866907 3.718958 -13.979826 18.997715 -2.876335 0.716805 1.347451 40.000264 4.270586 -26.030615 -2.122500 7.125000 0.000000 0.000000 35.962600 -53.662500 -8.516600 
-0.389995 18.375675 8.580829 -8.489076 -0.402133 14.290888 6.473814 4.362450 -2.524601 -22.375474 -43.992968 20.793190 -3.802977 -2.383013 -3.295937 -14.214463 45.090003 -31.860674 0.542300 4.718300 13.106700 -0.997450 -4.299038 -0.959120 22.719222 25.965856 0.504598 3.541742 -0.881983 3.171983 7.624307 -24.597767 -3.035397 -0.006500 0.522600 -1.436000 -1.253647 1.627869 9.708526 15.591324 6.461971 -32.934983 -9.621745 -0.991471 -8.664948 -17.510131 -9.747013 -5.303674 19.773463 -16.619349 24.561034 3.735600 -6.513400 7.363200 -8.896023 -6.115478 2.460478 -85.088285 14.313571 16.064506 12.770299 -14.658244 -2.415809 0.649279 1.071285 31.287638 10.645888 -10.294557 -2.159800 -7.125000 0.000000 0.000000 -11.531800 18.348400 7.468100 11.946310 7.136393 2.350594 81.025806 -19.648029 3.406196 -13.832718 18.815709 -2.818673 0.727798 1.338431 40.531457 4.334346 -26.053587 -2.153400 7.125000 0.000000 0.000000 36.035500 -53.667400 -8.542400 
-0.392937 18.374204 8.581144 -8.509764 -0.415061 14.291055 6.548808 4.386987 -2.470814 -22.364920 -43.967604 20.706876 -3.806929 -2.406792 -3.304073 -14.196325 45.053116 -31.875299 0.544100 4.725600 13.127600 -0.896511 -4.296714 -0.887498 22.605673 26.060356 0.444691 3.541206 -0.884168 3.171149 7.637836 -24.616077 -3.085638 -0.005400 0.475700 -1.307100 -1.691183 1.639541 9.436520 16.551899 6.610202 -32.169972 -9.834971 -1.051050 -8.782985 -18.686746 -10.276706 -5.945895 20.102806 -17.302482 25.215779 3.847900 -6.816500 7.697100 -9.002234 -6.086320 2.378049 -85.263514 13.910225 16.274613 12.710994 -14.551759 -2.388318 0.495913 1.149939 29.699854 11.723537 -10.030049 -2.356500 -7.125000 0.000000 0.000000 -10.696600 18.557200 6.856600 11.943182 7.190051 2.346256 80.580227 -19.304936 3.143388 -13.566743 18.483587 -2.716511 0.741762 1.319241 41.086057 4.278008 -25.954613 -2.115500 7.125000 0.000000 0.000000 35.894900 -53.591500 -8.430500 
-0.396721 18.371681 8.582195 -8.600234 -0.365085 14.175149 6.657913 4.445753 -2.343197 -22.281951 -43.905506 20.600472 -3.808268 -2.437844 -3.302263 -14.212388 45.014381 -31.717511 0.529900 4.664700 12.954800 -0.753002 -4.307887 -0.732115 22.551406 26.108915 0.444763 3.540100 -0.869665 3.153097 7.665921 -24.672104 -3.093654 -0.005400 0.476600 -1.309600 -2.173104 1.661054 8.910301 17.879860 6.750945 -30.461863 -10.201016 -1.104330 -9.027199 -19.936230 -11.081468 -7.490944 20.355616 -18.183705 26.238456 3.874200 -7.183300 8.214100 -9.229259 -6.020694 2.236137 -85.279242 13.105893 16.678212 12.639489 -14.439762 -2.359343 0.347059 1.219559 28.123736 12.721737 -9.813795 -2.537400 -7.125000 0.000000 0.000000 -9.915200 18.718900 6.303500 11.997509 7.258121 2.311873 79.969049 -18.504074 2.738430 -13.264072 18.094576 -2.599080 0.758704 1.301075 41.666077 4.201012 -25.878265 -2.069800 7.125000 0.000000 0.000000 35.754900 -53.540500 -8.342700 
-0.405758 18.371576 8.591443 -8.491149 -0.257714 14.376929 6.694446 4.460677 -2.358447 -22.372382 -44.218800 20.550224 -3.807621 -2.439016 -3.322719 -14.232234 45.097990 -31.906016 0.542700 4.719800 13.111200 -0.685109 -4.291222 -0.741559 22.346061 26.326000 0.419294 3.552657 -0.819462 2.982489 7.796378 -25.029809 -3.200795 -0.001000 0.206500 -0.567400 -2.698542 1.544118 8.549890 18.550009 6.751014 -30.494111 -10.160368 -1.218509 -8.805082 -21.052432 -11.419583 -7.160785 20.680033 -18.706940 26.265460 4.031600 -7.466800 8.346700 -9.235452 -6.074390 2.190193 -85.566532 13.078835 16.811876 12.666412 -14.431837 -2.365966 0.199661 1.285392 26.518386 13.772478 -9.644635 -2.734100 -7.125000 0.000000 0.000000 -9.093500 18.822900 5.745900 11.931958 7.304702 2.319098 79.552315 -18.441074 2.954172 -12.955825 17.712895 -2.494881 0.780878 1.285870 42.043462 4.270081 -25.912028 -2.096500 7.125000 0.000000 0.000000 35.829300 -53.560300 -8.382500 
-0.421627 18.373573 8.607942 -8.593547 -0.139721 14.536933 7.004363 4.548107 -2.244896 -22.591074 -44.794512 20.653521 -3.828019 -2.512436 -3.366795 -14.213325 45.216061 -32.597505 0.595200 4.939100 13.735000 -0.274297 -4.283464 -0.535785 21.936258 26.765066 0.298656 3.566353 -0.745857 2.710590 7.986355 -25.541302 -3.343431 -0.002600 -0.329700 0.905800 -4.620377 1.167487 7.290708 22.784648 6.857023 -28.192879 -10.573453 -1.743819 -9.047459 -23.099780 -11.888085 -8.533906 20.699907 -18.841520 26.695989 4.212500 -7.558000 8.789500 -9.677431 -6.088886 1.903376 -86.745269 12.322698 15.825415 12.689483 -14.348111 -2.368980 -0.057959 1.435000 24.141424 15.866473 -9.584579 -3.204200 -7.125000 0.000000 0.000000 -7.448300 18.691300 4.708400 11.385920 7.478590 2.339567 77.953573 -17.497855 4.686108 -12.441478 17.164106 -2.338404 0.805675 1.273568 42.137689 4.380048 -25.955020 -2.139900 7.125000 0.000000 0.000000 35.945900 -53.586400 -8.440400 
